<svg xmlns="http://www.w3.org/2000/svg" viewBox="0 0 620 620"><defs><style>.cls-1{fill:#fff;}.cls-2{fill:#3b3a38;}.cls-3{fill:#eeecea;}.cls-4{fill:#3a3634;}.cls-5{fill:none;}.cls-6{fill:#14171a;}.cls-7{fill:#b8b5b2;}.cls-8{fill:#ef6c6c;}.cls-9{fill:#53504d;}.cls-10{fill:#d6d4d2;}.cls-11{fill:#59ccd8;}</style></defs><title>logo</title><g id="Layer_2" data-name="Layer 2"><g id="logo-traced"><circle class="cls-1" cx="310" cy="310" r="310"/><path class="cls-2" d="M310,6A304.08,304.08,0,0,1,428.33,590.11,304.08,304.08,0,0,1,191.67,29.89,302.09,302.09,0,0,1,310,6m0-6C138.79,0,0,138.79,0,310S138.79,620,310,620,620,481.21,620,310,481.21,0,310,0Z"/><circle class="cls-3" cx="310" cy="310" r="219"/><path class="cls-4" d="M310,97a212.31,212.31,0,1,1-82.91,16.74A211.66,211.66,0,0,1,310,97m0-6C189,91,91,189,91,310s98,219,219,219,219-98,219-219S431,91,310,91Z"/><circle class="cls-2" cx="350.67" cy="308.27" r="100"/><rect class="cls-5" x="548.08" y="297.17" width="31.34" height="27.18"/><path class="cls-6" d="M579.42,304.55c-.32,10.23-12.33,20.93-15.67,20.93s-15.67-10.73-15.67-20.93c0-4.37,3.52-8.49,7.85-8.49,4.83,0,7.43,4.9,7.82,5.44.39-.53,3-5.44,7.85-5.44C575.9,296.05,579.42,300.18,579.42,304.55Z"/><path class="cls-2" d="M182.6,90.95q.16.46.41,1.06a7.34,7.34,0,0,0,.5,1,1.19,1.19,0,0,0,.51.47.81.81,0,0,0,.78-.13,2.2,2.2,0,0,0,.76-.81,2.66,2.66,0,0,0,.32-1.27,5.5,5.5,0,0,0-.26-1.7,8.91,8.91,0,0,0-1-2.08,9.07,9.07,0,0,0-2.44-2.72,7.35,7.35,0,0,0-2.93-1.26,7.71,7.71,0,0,0-3.22.12,11.59,11.59,0,0,0-3.33,1.42,10,10,0,0,0-2.91,2.62,8.63,8.63,0,0,0-1.49,3.27,9.06,9.06,0,0,0,0,3.62,10.63,10.63,0,0,0,1.43,3.64,10.26,10.26,0,0,0,2.74,3,8.44,8.44,0,0,0,3.35,1.46,9.42,9.42,0,0,0,3.7,0,11.66,11.66,0,0,0,3.75-1.51A11,11,0,0,0,186,98.81,9.53,9.53,0,0,0,187.65,96l3.2-2a12,12,0,0,1-1.91,5.66,13.42,13.42,0,0,1-4.33,4.18,14,14,0,0,1-4.86,1.88,13.17,13.17,0,0,1-4.95,0,12.07,12.07,0,0,1-4.52-1.93A13,13,0,0,1,165,95.17a12.53,12.53,0,0,1,.28-4.88,13.19,13.19,0,0,1,5.94-7.9,13.73,13.73,0,0,1,4.14-1.68,11.93,11.93,0,0,1,4.43-.17A10.84,10.84,0,0,1,184,82.12a10.63,10.63,0,0,1,3.39,3.54,10.28,10.28,0,0,1,1.27,2.89,8,8,0,0,1,.25,2.48,6.26,6.26,0,0,1-.5,2.06,7.36,7.36,0,0,1-1,1.63,8.37,8.37,0,0,1-1.14,1.2,8.7,8.7,0,0,1-1,.77,2.93,2.93,0,0,1-2,.57,1.85,1.85,0,0,1-1.21-.74l-.06,0a7.88,7.88,0,0,1-.79,2,5.35,5.35,0,0,1-2,1.88,4.59,4.59,0,0,1-3.86.48,5.37,5.37,0,0,1-1.8-1A7.2,7.2,0,0,1,172,98.07a8.73,8.73,0,0,1-1.1-2.7,8,8,0,0,1-.13-2.79,6.22,6.22,0,0,1,3-4.59,5.13,5.13,0,0,1,2.16-.8,3.1,3.1,0,0,1,2,.54l.06,0-.57-1.45,2.73-1.67Zm-3.18.87a3.86,3.86,0,0,0-1.7-1.6,2.16,2.16,0,0,0-2.09.24,2.94,2.94,0,0,0-1.48,2.34,4.85,4.85,0,0,0,.78,3,6,6,0,0,0,.66.88,3,3,0,0,0,.81.64,2,2,0,0,0,1,.22,2.27,2.27,0,0,0,1.14-.38,3.66,3.66,0,0,0,1.3-1.23,3.07,3.07,0,0,0,.44-1.4,3.63,3.63,0,0,0-.21-1.43A7,7,0,0,0,179.41,91.82Z"/><path class="cls-2" d="M201.2,72.44l-6.28,2.81L193,71l17.41-7.79,1.92,4.29L206,70.27,214,88l-4.85,2.17Z"/><path class="cls-2" d="M227.78,57,232,55.65l17.28,19.8-5.71,1.82L240,73l-8.92,2.84-.37,5.48-5.58,1.78ZM231.85,63l-.53,8,5.61-1.79Z"/><path class="cls-2" d="M255.5,49.29l7.12-1.19L275.47,63h.07L272.8,46.41l5.24-.87L282,69.32l-6.85,1.14-13.19-15.2h-.07l2.81,16.93-5.24.87Z"/><path class="cls-2" d="M300.58,57.82l-9.45-13.56,6.6-.19,5.36,8.88,5.15-9.17,6.3-.18-8.66,14.07L306.18,68l-5.31.15Z"/><path class="cls-2" d="M325.08,56a13.59,13.59,0,0,1,1.53-5.11,11.47,11.47,0,0,1,3.12-3.68,11.93,11.93,0,0,1,4.37-2.07,15.78,15.78,0,0,1,10.36,1.14,12,12,0,0,1,3.82,3,11.53,11.53,0,0,1,2.26,4.27,14.65,14.65,0,0,1-1.13,10.43,11.49,11.49,0,0,1-3.12,3.68,11.91,11.91,0,0,1-4.37,2.07,15.77,15.77,0,0,1-10.36-1.14,11.91,11.91,0,0,1-3.82-3,11.51,11.51,0,0,1-2.26-4.27A13.63,13.63,0,0,1,325.08,56Zm5.48.6a8.83,8.83,0,0,0,.19,3.15,7.14,7.14,0,0,0,1.24,2.6,6.94,6.94,0,0,0,2.18,1.87,8.5,8.5,0,0,0,6.13.67,7,7,0,0,0,2.53-1.35,7.15,7.15,0,0,0,1.77-2.27,9.41,9.41,0,0,0,.67-6.18A7.11,7.11,0,0,0,344,52.45a6.93,6.93,0,0,0-2.18-1.87,8.48,8.48,0,0,0-6.13-.67,6.91,6.91,0,0,0-2.53,1.35,7.09,7.09,0,0,0-1.77,2.29A8.89,8.89,0,0,0,330.57,56.58Z"/><path class="cls-2" d="M367.1,49.84l15.7,3.88-1.17,4.76-10.54-2.61-1.17,4.76,9.75,2.41-1.17,4.76-9.75-2.41-2.25,9.13-5.16-1.28Z"/><path class="cls-2" d="M396.47,58.11l5,1.76-8,22.74-5-1.76Z"/><path class="cls-2" d="M424.21,75.83A3.78,3.78,0,0,0,423.12,74a6.27,6.27,0,0,0-1.74-1.23,5.45,5.45,0,0,0-1.14-.38,4.59,4.59,0,0,0-1.23-.1,2.52,2.52,0,0,0-1.13.32,1.94,1.94,0,0,0-.79.91,1.92,1.92,0,0,0,0,1.86,7.67,7.67,0,0,0,1.46,1.76q1,.89,2.08,1.86a11,11,0,0,1,1.94,2.17,6.32,6.32,0,0,1,1,2.69,6.12,6.12,0,0,1-.67,3.4,7.75,7.75,0,0,1-2.15,2.87,7.11,7.11,0,0,1-2.88,1.4,8.58,8.58,0,0,1-3.3.08,13.57,13.57,0,0,1-7.09-3.54,10.93,10.93,0,0,1-2.43-3.67l5.18-2.18a5.51,5.51,0,0,0,1.16,2.4,5.89,5.89,0,0,0,2.08,1.62,5.83,5.83,0,0,0,1.25.41,4.28,4.28,0,0,0,1.28.08,2.57,2.57,0,0,0,1.1-.35,2,2,0,0,0,.76-.88,2,2,0,0,0,0-1.91,7.72,7.72,0,0,0-1.45-1.85q-1-.93-2.1-1.95a12.15,12.15,0,0,1-2-2.22,6.57,6.57,0,0,1-1.07-2.67,5.66,5.66,0,0,1,.6-3.29A7.24,7.24,0,0,1,414,68.84a7.39,7.39,0,0,1,2.89-1.37,8.89,8.89,0,0,1,3.3-.11,12.08,12.08,0,0,1,3.33,1,13.52,13.52,0,0,1,3.34,2.18,9.12,9.12,0,0,1,2.31,3.2Z"/><path class="cls-2" d="M443.41,79.13l4.5,2.82-4.78,7.61L451.88,95l4.78-7.61,4.5,2.82-12.82,20.42-4.5-2.82L449.38,99l-8.74-5.48-5.54,8.82-4.5-2.82Z"/><path class="cls-2" d="M107.86,453l-3.17-4.41,3-2.17,8.79,12.22-3,2.17-3.17-4.41-12.43,9-2.45-3.4Z"/><path class="cls-2" d="M121.79,465.22l8.48,9.76-2.92,2.54-5.73-6.59-2.68,2.33,5.41,6.23L121.43,482,116,475.79l-2.92,2.54,6,7-2.92,2.54-8.79-10.12Z"/><path class="cls-2" d="M137.1,482.25l4.17,3.88-3.1,15.19,0,0,9-9.67,3.07,2.86-13,13.92-4-3.74,3.16-15.57,0,0L127.2,499l-3.07-2.86Z"/><path class="cls-2" d="M167.3,521.06l.08-13,4.35,2.88-.58,8.16,7.5-3.57,4.14,2.75-12,5.14-4.49,6.76-3.5-2.32Z"/><path class="cls-2" d="M189.49,522.07l11.41,6.08-1.82,3.41-7.71-4.11-1.67,3.13,7.28,3.88-1.82,3.41L187.88,534l-1.82,3.41,8.13,4.33-1.82,3.41-11.83-6.3Z"/><path class="cls-2" d="M215.67,534.83l3.21,1.32.42,20.74-4.37-1.8,0-4.35-6.83-2.81-3,3.13-4.27-1.76Zm-.61,5.73-4.38,4.59,4.3,1.77Z"/><path class="cls-2" d="M234.2,541.84l7.06,2.1a13.1,13.1,0,0,1,2.56,1.06,6.53,6.53,0,0,1,1.92,1.55,4.69,4.69,0,0,1,1,2.15,6,6,0,0,1-.24,2.83,5.58,5.58,0,0,1-2,3,4.71,4.71,0,0,1-3.44.84l2.35,9.08L238.61,563,237,554.57l-2-.59-2.16,7.29-4-1.2Zm1.78,8.74,2.37.71c.36.11.75.21,1.16.3a3.68,3.68,0,0,0,1.16.09,2,2,0,0,0,1-.36,1.91,1.91,0,0,0,.66-1.06,2,2,0,0,0,0-1.19,2,2,0,0,0-.53-.85,3.36,3.36,0,0,0-.92-.6,8.46,8.46,0,0,0-1.08-.41l-2.63-.78Z"/><path class="cls-2" d="M265.26,554.47a3,3,0,0,0-1.17-1.21,5,5,0,0,0-1.56-.63,4.42,4.42,0,0,0-.94-.08,3.6,3.6,0,0,0-1,.15,2,2,0,0,0-.8.46,1.54,1.54,0,0,0-.44.84,1.52,1.52,0,0,0,.38,1.42,6.09,6.09,0,0,0,1.44,1.08q.9.51,1.94,1a8.73,8.73,0,0,1,1.89,1.31,5,5,0,0,1,1.29,1.87,4.83,4.83,0,0,1,.12,2.74,6.11,6.11,0,0,1-1.12,2.6,5.59,5.59,0,0,1-1.95,1.61,6.79,6.79,0,0,1-2.52.68,10.26,10.26,0,0,1-2.83-.18,10.14,10.14,0,0,1-3.26-1.22,8.6,8.6,0,0,1-2.54-2.37l3.56-2.63a4.35,4.35,0,0,0,1.34,1.62,4.58,4.58,0,0,0,2.94.94,3.42,3.42,0,0,0,1-.17,2,2,0,0,0,.78-.48,1.55,1.55,0,0,0,.42-.82,1.62,1.62,0,0,0-.38-1.46,6.07,6.07,0,0,0-1.46-1.15q-.91-.54-2-1.11a9.68,9.68,0,0,1-1.93-1.34,5.19,5.19,0,0,1-1.32-1.85,4.45,4.45,0,0,1-.15-2.63,5.69,5.69,0,0,1,1.11-2.52,5.82,5.82,0,0,1,2-1.58,7,7,0,0,1,2.51-.69,9.56,9.56,0,0,1,2.74.15,10.68,10.68,0,0,1,3,1.06,7.2,7.2,0,0,1,2.36,2Z"/><path class="cls-2" d="M290.29,553.44l4.57.12,2.72,12.27h.05l4.29-12.1,3.89.1,3.63,12.62h.05L313,554l4.25.11-6,18.88-3.73-.09-3.86-13.27h-.05L299,572.69l-3.6-.09Z"/><path class="cls-2" d="M325.24,553.38l4.18-.3,1.35,19-4.18.3Z"/><path class="cls-2" d="M343.58,555.25l-5.37.79-.53-3.67,14.89-2.18.53,3.67-5.37.79,2.21,15.16-4.15.61Z"/><path class="cls-2" d="M360.71,548.62l4.07-1,1.71,6.89,7.9-2-1.71-6.88,4.07-1,4.58,18.46-4.07,1-2-8-7.9,2,2,8-4.07,1Z"/><path class="cls-2" d="M404.5,538.75l-5,2.11-1.45-3.42,13.86-5.86,1.45,3.42-5,2.11,6,14.11-3.86,1.63Z"/><path class="cls-2" d="M417.69,529.14l4-2.24,8.63,9.15,0,0-2.51-12.58,3.4-1.91,9.58,9,0,0L437.51,518l3.7-2.08,4.47,19.31-3.26,1.83-10.11-9.43,0,0,2.79,13.53L431.93,543Z"/><path class="cls-2" d="M447.7,511.23l3.44-2.39L462,524.45l-3.44,2.39Z"/><path class="cls-2" d="M464.44,503.48l-4.22,3.42L457.88,504l11.69-9.48,2.34,2.88-4.22,3.42,9.65,11.89-3.26,2.64Z"/><path class="cls-2" d="M481,489.06l-3.9,3.78-2.58-2.66,10.8-10.48,2.58,2.66-3.9,3.78,10.67,11-3,2.92Z"/><path class="cls-2" d="M491,473.5l8.41-9.82,2.94,2.52-5.68,6.63,2.69,2.31,5.37-6.27,2.94,2.52-5.37,6.27,2.94,2.52,6-7,2.94,2.52-8.72,10.18Z"/><path class="cls-2" d="M505.59,455.79l4.23-6a13,13,0,0,1,1.81-2.09,6.55,6.55,0,0,1,2.08-1.33,4.69,4.69,0,0,1,2.35-.26,6,6,0,0,1,2.61,1.13,5.58,5.58,0,0,1,2.2,2.83,4.73,4.73,0,0,1-.3,3.54l9.35.66L527,458.35l-8.5-1.12-1.19,1.69,6.22,4.37-2.41,3.43Zm8.85,1.1,1.42-2c.21-.31.43-.64.65-1a3.77,3.77,0,0,0,.46-1.07,2,2,0,0,0,0-1.06,1.93,1.93,0,0,0-.8-1,2,2,0,0,0-1.12-.42,2,2,0,0,0-1,.24,3.36,3.36,0,0,0-.85.68,8.56,8.56,0,0,0-.73.9l-1.57,2.24Z"/><path class="cls-7" d="M310,22A288.08,288.08,0,0,1,422.1,575.37,288.08,288.08,0,0,1,197.9,44.63,286.2,286.2,0,0,1,310,22m0-2C149.84,20,20,149.84,20,310S149.84,600,310,600,600,470.16,600,310,470.16,20,310,20Z"/><path class="cls-8" d="M71.42,304.55c-.32,10.23-12.33,20.93-15.67,20.93s-15.67-10.73-15.67-20.93c0-4.37,3.52-8.49,7.85-8.49,4.83,0,7.43,4.9,7.82,5.44.39-.53,3-5.44,7.85-5.44C67.9,296.05,71.42,300.18,71.42,304.55Z"/><path class="cls-9" d="M55.75,327.47c-4.58-.09-17.67-11.84-17.67-22.93,0-5.69,4.51-10.49,9.85-10.49,2.95,0,5.57,1.35,7.82,4,2.27-2.67,4.9-4,7.85-4,5.23,0,9.82,4.9,9.82,10.49v.06C73.08,315.27,60.67,327.47,55.75,327.47Zm-7.82-29.42c-3.06,0-5.85,3.09-5.85,6.49,0,9.15,11.27,18.73,13.72,18.93,2.27-.21,13.31-9.81,13.62-19,0-3.39-2.78-6.46-5.82-6.46-3.29,0-5.33,3.2-6,4.26l-.24.36-1.61,2.2-1.61-2.2-.25-.38C53.22,301.25,51.2,298.05,47.93,298.05Z"/><path class="cls-8" d="M578.42,304.55c-.32,10.23-12.33,20.93-15.67,20.93s-15.67-10.73-15.67-20.93c0-4.37,3.52-8.49,7.85-8.49,4.83,0,7.43,4.9,7.82,5.44.39-.53,3-5.44,7.85-5.44C574.9,296.05,578.42,300.18,578.42,304.55Z"/><path class="cls-9" d="M562.75,327.47c-4.58-.09-17.67-11.84-17.67-22.93,0-5.69,4.51-10.49,9.85-10.49,2.95,0,5.57,1.35,7.82,4,2.27-2.67,4.9-4,7.85-4,5.23,0,9.82,4.9,9.82,10.49v.06C580.08,315.27,567.67,327.47,562.75,327.47Zm-7.82-29.42c-3.06,0-5.85,3.09-5.85,6.49,0,9.15,11.27,18.73,13.72,18.93,2.27-.21,13.31-9.81,13.62-19,0-3.39-2.78-6.46-5.82-6.46-3.29,0-5.33,3.2-6,4.26l-.24.36-1.61,2.2-1.61-2.2-.25-.38C560.22,301.25,558.2,298.05,554.93,298.05Z"/><path class="cls-10" d="M562,338.31h-.11a1,1,0,0,1-.89-1.1q.16-1.48.3-3a1,1,0,1,1,2,.19q-.14,1.5-.3,3A1,1,0,0,1,562,338.31Z"/><path class="cls-10" d="M533.84,429.93a1,1,0,0,1-.88-1.47c.94-1.76,1.86-3.55,2.76-5.33a1,1,0,1,1,1.79.9c-.9,1.79-1.84,3.6-2.78,5.37A1,1,0,0,1,533.84,429.93Zm5.41-10.77a1,1,0,0,1-.9-1.43c.86-1.81,1.7-3.65,2.5-5.46a1,1,0,0,1,1.83.81c-.81,1.83-1.66,3.68-2.52,5.5A1,1,0,0,1,539.24,419.16Zm4.89-11a1,1,0,0,1-.92-1.38c.76-1.83,1.51-3.7,2.24-5.57a1,1,0,1,1,1.87.72c-.73,1.89-1.49,3.77-2.25,5.62A1,1,0,0,1,544.13,408.14Zm4.36-11.24a1,1,0,0,1-.94-1.34c.67-1.87,1.33-3.78,2-5.67a1,1,0,0,1,1.9.63c-.64,1.91-1.3,3.83-2,5.72A1,1,0,0,1,548.49,396.9Zm3.81-11.43a1,1,0,0,1-.29,0,1,1,0,0,1-.66-1.25c.58-1.9,1.15-3.84,1.69-5.76A1,1,0,0,1,555,379c-.54,1.94-1.12,3.89-1.71,5.8A1,1,0,0,1,552.3,385.47Zm3.26-11.6a1,1,0,0,1-.25,0,1,1,0,0,1-.72-1.22c.49-1.93,1-3.89,1.42-5.83a1,1,0,1,1,1.95.45c-.45,2-.93,3.94-1.43,5.88A1,1,0,0,1,555.56,373.87Zm2.7-11.75-.2,0a1,1,0,0,1-.78-1.18c.4-1.95.78-3.93,1.13-5.89a1,1,0,0,1,2,.35c-.36,2-.74,4-1.14,5.94A1,1,0,0,1,558.26,362.12Zm2.14-11.86h-.16a1,1,0,0,1-.83-1.14c.31-2,.59-4,.85-5.94a1,1,0,1,1,2,.26c-.26,2-.55,4-.86,6A1,1,0,0,1,560.4,350.26Z"/><path class="cls-10" d="M529.45,437.83a1,1,0,0,1-.86-1.5q.75-1.29,1.48-2.59a1,1,0,0,1,1.74,1q-.74,1.31-1.49,2.61A1,1,0,0,1,529.45,437.83Z"/><path class="cls-10" d="M466.34,111.54a1,1,0,0,1-.62-.21l-2.36-1.83a1,1,0,0,1,1.22-1.59l2.38,1.84a1,1,0,0,1-.62,1.79Z"/><path class="cls-10" d="M561.7,281.36a1,1,0,0,1-1-.88c-.23-1.95-.48-3.9-.75-5.81a1,1,0,1,1,2-.28c.27,1.92.52,3.89.75,5.85a1,1,0,0,1-.88,1.11Zm-1.63-11.64a1,1,0,0,1-1-.84c-.32-1.92-.66-3.86-1-5.76a1,1,0,1,1,2-.37c.36,1.92.7,3.87,1,5.81a1,1,0,0,1-.83,1.15Zm-2.17-11.54a1,1,0,0,1-1-.79c-.4-1.89-.83-3.81-1.28-5.71a1,1,0,1,1,1.95-.46c.45,1.91.89,3.85,1.29,5.75a1,1,0,0,1-.77,1.19Zm-2.7-11.43a1,1,0,0,1-1-.75c-.49-1.87-1-3.77-1.54-5.64a1,1,0,1,1,1.92-.55c.54,1.89,1.07,3.81,1.56,5.69a1,1,0,0,1-1,1.25ZM552,235.46a1,1,0,0,1-1-.7c-.57-1.84-1.18-3.72-1.81-5.57a1,1,0,1,1,1.89-.64c.63,1.86,1.24,3.75,1.82,5.61a1,1,0,0,1-1,1.3Zm-3.76-11.13a1,1,0,0,1-.94-.66c-.67-1.84-1.37-3.68-2.07-5.48a1,1,0,1,1,1.86-.73c.71,1.81,1.41,3.67,2.08,5.52a1,1,0,0,1-.94,1.34Zm-4.28-10.95a1,1,0,0,1-.92-.62c-.75-1.8-1.53-3.61-2.32-5.37a1,1,0,1,1,1.83-.81c.79,1.78,1.58,3.61,2.34,5.42a1,1,0,0,1-.92,1.39Zm-4.78-10.74a1,1,0,0,1-.9-.57c-.85-1.78-1.71-3.55-2.57-5.26a1,1,0,1,1,1.79-.9c.87,1.72,1.74,3.51,2.59,5.3a1,1,0,0,1-.9,1.43Zm-5.28-10.51a1,1,0,0,1-.88-.53q-1.38-2.59-2.81-5.14a1,1,0,0,1,1.74-1q1.44,2.57,2.83,5.18a1,1,0,0,1-.88,1.47Zm-5.77-10.25a1,1,0,0,1-.86-.49c-1-1.69-2-3.37-3-5a1,1,0,0,1,1.7-1.06c1,1.65,2.06,3.34,3.07,5a1,1,0,0,1-.86,1.51Zm-6.23-10a1,1,0,0,1-.84-.45c-1.07-1.63-2.17-3.26-3.28-4.86a1,1,0,1,1,1.64-1.14c1.11,1.61,2.22,3.25,3.3,4.9a1,1,0,0,1-.83,1.55Zm-6.69-9.68a1,1,0,0,1-.81-.41c-1.15-1.58-2.32-3.16-3.5-4.7a1,1,0,1,1,1.59-1.21c1.19,1.55,2.37,3.15,3.53,4.74a1,1,0,0,1-.81,1.59ZM508,152.87a1,1,0,0,1-.78-.38c-1.22-1.52-2.47-3-3.71-4.53a1,1,0,1,1,1.53-1.29c1.26,1.5,2.51,3,3.74,4.57a1,1,0,0,1-.78,1.62Zm-7.56-9a1,1,0,0,1-.75-.34c-1.28-1.46-2.6-2.93-3.92-4.36a1,1,0,0,1,1.47-1.35c1.33,1.44,2.66,2.92,3.95,4.39a1,1,0,0,1-.75,1.66Zm-8-8.66a1,1,0,0,1-.72-.31c-1.36-1.41-2.75-2.82-4.12-4.17a1,1,0,0,1,1.41-1.42c1.38,1.37,2.78,2.78,4.15,4.21a1,1,0,0,1-.72,1.69Zm-8.36-8.29a1,1,0,0,1-.69-.27c-1.42-1.34-2.86-2.68-4.3-4a1,1,0,1,1,1.34-1.48c1.45,1.31,2.91,2.66,4.34,4a1,1,0,0,1-.69,1.73ZM475.43,119a1,1,0,0,1-.65-.24c-1.47-1.26-3-2.54-4.48-3.78a1,1,0,1,1,1.27-1.54c1.52,1.25,3,2.53,4.52,3.81a1,1,0,0,1-.65,1.76Z"/><path class="cls-10" d="M562.59,290.41a1,1,0,0,1-1-.92q-.12-1.49-.26-3a1,1,0,0,1,2-.18q.14,1.5.26,3a1,1,0,0,1-.92,1.08Z"/><path class="cls-10" d="M57.4,290.54h-.08a1,1,0,0,1-.92-1.08q.12-1.5.26-3a1,1,0,0,1,2,.18q-.14,1.49-.26,3A1,1,0,0,1,57.4,290.54Z"/><path class="cls-10" d="M58.26,281.71h-.12a1,1,0,0,1-.88-1.11c.22-1.94.47-3.91.74-5.86a1,1,0,1,1,2,.27c-.27,1.93-.52,3.89-.74,5.81A1,1,0,0,1,58.26,281.71Zm1.62-11.65h-.16a1,1,0,0,1-.83-1.15c.32-2,.66-3.91,1-5.82a1,1,0,0,1,2,.37c-.35,1.89-.69,3.83-1,5.77A1,1,0,0,1,59.87,270.05ZM62,258.49l-.21,0a1,1,0,0,1-.77-1.19c.41-1.92.84-3.86,1.29-5.76a1,1,0,1,1,1.95.46c-.44,1.89-.87,3.81-1.28,5.72A1,1,0,0,1,62,258.49ZM64.72,247a1,1,0,0,1-1-1.25c.49-1.89,1-3.8,1.55-5.7a1,1,0,1,1,1.92.55c-.54,1.88-1.05,3.78-1.54,5.65A1,1,0,0,1,64.72,247Zm3.22-11.31a1,1,0,0,1-1-1.3c.58-1.86,1.19-3.75,1.82-5.62a1,1,0,0,1,1.9.64c-.62,1.85-1.23,3.72-1.8,5.57A1,1,0,0,1,67.94,235.74Zm3.75-11.14a1,1,0,0,1-.94-1.34c.67-1.85,1.37-3.7,2.08-5.52a1,1,0,0,1,1.86.73c-.7,1.81-1.4,3.65-2.06,5.48A1,1,0,0,1,71.69,224.59Zm4.26-11a1,1,0,0,1-.92-1.38c.75-1.81,1.54-3.63,2.33-5.42a1,1,0,1,1,1.83.81c-.79,1.78-1.57,3.58-2.31,5.38A1,1,0,0,1,76,213.64Zm4.77-10.74a1,1,0,0,1-.9-1.43c.83-1.76,1.7-3.55,2.58-5.3a1,1,0,1,1,1.79.9c-.87,1.74-1.73,3.51-2.56,5.26A1,1,0,0,1,80.73,202.9ZM86,192.39a1,1,0,0,1-.88-1.47c.91-1.72,1.86-3.46,2.83-5.18a1,1,0,1,1,1.74,1c-1,1.7-1.9,3.43-2.8,5.14A1,1,0,0,1,86,192.39Zm5.75-10.25a1,1,0,0,1-.86-1.51c1-1.69,2-3.38,3.06-5a1,1,0,1,1,1.7,1.06c-1,1.64-2,3.33-3,5A1,1,0,0,1,91.74,182.15Zm6.21-10a1,1,0,0,1-.83-1.55c1.08-1.65,2.19-3.29,3.29-4.89a1,1,0,0,1,1.65,1.14c-1.1,1.59-2.2,3.22-3.27,4.85A1,1,0,0,1,98,172.18Zm6.67-9.67a1,1,0,0,1-.81-1.59c1.14-1.58,2.33-3.17,3.51-4.74a1,1,0,0,1,1.59,1.21c-1.18,1.55-2.35,3.13-3.49,4.7A1,1,0,0,1,104.62,162.51Zm7.11-9.35a1,1,0,0,1-.78-1.62c1.22-1.52,2.47-3.06,3.73-4.57a1,1,0,0,1,1.54,1.28c-1.25,1.49-2.49,3-3.7,4.53A1,1,0,0,1,111.73,153.15Zm7.53-9a1,1,0,0,1-.75-1.66c1.29-1.48,2.62-3,3.94-4.39a1,1,0,1,1,1.47,1.35c-1.31,1.42-2.62,2.89-3.9,4.36A1,1,0,0,1,119.26,144.14Zm7.94-8.66a1,1,0,0,1-.72-1.69c1.35-1.41,2.75-2.83,4.13-4.2A1,1,0,1,1,132,131c-1.38,1.37-2.76,2.77-4.1,4.17A1,1,0,0,1,127.2,135.49Zm8.33-8.28a1,1,0,0,1-.69-1.73c1.43-1.36,2.89-2.71,4.32-4A1,1,0,1,1,140.5,123c-1.42,1.29-2.87,2.63-4.29,4A1,1,0,0,1,135.52,127.21Zm8.7-7.89a1,1,0,0,1-.65-1.76c1.48-1.28,3-2.56,4.5-3.81a1,1,0,1,1,1.27,1.54c-1.5,1.23-3,2.51-4.47,3.78A1,1,0,0,1,144.22,119.32Z"/><path class="cls-10" d="M153.19,111.91a1,1,0,0,1-.62-1.79l2.38-1.85a1,1,0,0,1,1.22,1.58l-2.36,1.84A1,1,0,0,1,153.19,111.91Z"/><path class="cls-10" d="M92.47,441.07a1,1,0,0,1-.86-.49q-.77-1.29-1.53-2.59a1,1,0,0,1,1.73-1q.75,1.29,1.52,2.57a1,1,0,0,1-.86,1.51Z"/><path class="cls-10" d="M88.11,433.5a1,1,0,0,1-.88-.52q-1.39-2.52-2.73-5.07a1,1,0,0,1,1.77-.93q1.33,2.53,2.71,5a1,1,0,0,1-.87,1.48Zm-5.33-10.17a1,1,0,0,1-.9-.56c-.86-1.73-1.7-3.48-2.5-5.19a1,1,0,1,1,1.81-.85q1.21,2.59,2.48,5.15a1,1,0,0,1-.9,1.44Zm-4.86-10.4a1,1,0,0,1-.92-.6q-1.16-2.63-2.26-5.3a1,1,0,1,1,1.85-.76q1.09,2.64,2.24,5.26a1,1,0,0,1-.91,1.4Zm-4.38-10.61a1,1,0,0,1-.93-.64q-1-2.68-2-5.4a1,1,0,0,1,1.88-.68q1,2.69,2,5.35a1,1,0,0,1-.93,1.36Zm-3.89-10.8a1,1,0,0,1-.95-.68q-.91-2.73-1.77-5.48a1,1,0,0,1,1.91-.59q.85,2.73,1.75,5.44a1,1,0,0,1-.95,1.32Zm-3.4-11a1,1,0,0,1-1-.73q-.79-2.77-1.52-5.56a1,1,0,0,1,1.94-.5q.72,2.77,1.5,5.51a1,1,0,0,1-.69,1.24A1,1,0,0,1,66.25,380.58Zm-2.89-11.11a1,1,0,0,1-1-.77q-.66-2.8-1.26-5.62a1,1,0,0,1,2-.42q.59,2.8,1.25,5.58a1,1,0,0,1-.74,1.2ZM61,358.25a1,1,0,0,1-1-.81q-.53-2.82-1-5.67a1,1,0,1,1,2-.33q.47,2.82,1,5.63a1,1,0,0,1-.8,1.17Zm-1.87-11.32a1,1,0,0,1-1-.86q-.4-2.85-.75-5.71a1,1,0,0,1,2-.24q.34,2.84.74,5.67a1,1,0,0,1-.85,1.13Z"/><path class="cls-10" d="M57.75,335.5a1,1,0,0,1-1-.9q-.15-1.5-.27-3a1,1,0,1,1,2-.17q.13,1.49.27,3a1,1,0,0,1-.9,1.09Z"/><path class="cls-11" d="M188.08,400.52V260.72H174.42V236l33.33-20.51h32.67v185Z"/><path class="cls-2" d="M230.42,225.52v165H198.08V250.72H184.42v-9.11l26.16-16.09h19.84m10-10H207.75L174.42,236v24.7h13.67v139.8h52.33v-185Z"/><path class="cls-11" d="M350.67,237.52a70.75,70.75,0,1,1-70.75,70.75,70.83,70.83,0,0,1,70.75-70.75m0-20a90.75,90.75,0,1,0,90.75,90.75,90.75,90.75,0,0,0-90.75-90.75Z"/><path class="cls-1" d="M339.15,346.06c32.08,0,49.62-26.57,49.62-49.62,0-.76,0-1.51,0-2.25a35.48,35.48,0,0,0,8.7-9,34.81,34.81,0,0,1-10,2.75,17.5,17.5,0,0,0,7.67-9.65A35,35,0,0,1,384,282.49a17.45,17.45,0,0,0-29.72,15.9,49.51,49.51,0,0,1-35.95-18.22,17.45,17.45,0,0,0,5.4,23.28,17.31,17.31,0,0,1-7.9-2.18c0,.07,0,.15,0,.22a17.45,17.45,0,0,0,14,17.1,17.41,17.41,0,0,1-7.88.3A17.46,17.46,0,0,0,338.24,331a35,35,0,0,1-21.66,7.47,35.5,35.5,0,0,1-4.16-.24,49.37,49.37,0,0,0,26.73,7.83"/><path class="cls-10" d="M219,145.9l5.31,12.26a1.71,1.71,0,0,1-3.14,1.36l-5.44-12.57a3.62,3.62,0,0,1,1.78-4.5l7.86-3.4a1.71,1.71,0,0,1,1.36,3.14l-7.54,3.27-.25.14A1.65,1.65,0,0,0,219,145.9Z"/><path class="cls-10" d="M255.83,154.21a3.12,3.12,0,0,1-1.92,4.19l-12.26,5.31a1.71,1.71,0,0,1-1.36-3.14l11.94-5.17.28-.14a3.25,3.25,0,0,0-.1-.31l-2.59-6a1.71,1.71,0,0,1,3.14-1.36Z"/><path class="cls-10" d="M245.56,126.19a15.16,15.16,0,0,1-1,3.78,37.49,37.49,0,0,1-3.39,5.95c.76,0,2.47-.32,4.8-3.57a7.86,7.86,0,0,1-.92,5.63c-1.7,3-4.31,3-5.28,6.77,1.08-.09,2-.5,4.62-3.12.09,1.08.19,2.16-1.33,4.68s-3.94,3-6.63,6.23c-3.45,4.11-4.62,14.32-4.75,16.61-.18,3.23-1.11,3.47-1.75,1.13s-.65-4.94,0-11.2a71.72,71.72,0,0,1,5.32-21.34,35.59,35.59,0,0,1,8.95-12.09C245.31,124.59,245.63,125,245.56,126.19Z"/><path class="cls-10" d="M289.79,185.67a3.21,3.21,0,0,1,4,2.26,3.27,3.27,0,0,1-.31,2.42,3.23,3.23,0,0,1-2,1.51l-12.42,3.42a3.22,3.22,0,0,1-3.93-2.23l-2.56-9.31-3.11.86a2.15,2.15,0,0,1-1.16,0,2,2,0,0,1-1-.63,2.24,2.24,0,0,1-.5-1,2.35,2.35,0,0,1,.09-1.18l3.94-10a2.19,2.19,0,0,1,3.27-.9l8.29,6.44a7.61,7.61,0,0,1,.6.53,2.34,2.34,0,0,1,.39.77,2.18,2.18,0,0,1-1.5,2.65l-3.11.86,1.7,6.19ZM309.35,176a2.12,2.12,0,0,1-.09,1.18l-4,10a2.45,2.45,0,0,1-.55.78,1.9,1.9,0,0,1-.88.49,1.75,1.75,0,0,1-.94,0,2.21,2.21,0,0,1-.91-.38l-8.5-6.56a2.12,2.12,0,0,1-.68-1,2.3,2.3,0,0,1-.11-1.16,2,2,0,0,1,.55-1.06,2.12,2.12,0,0,1,1-.59l3.11-.86-1.71-6.23-9.31,2.56a3.23,3.23,0,0,1-2.45-.3,3.15,3.15,0,0,1-1.51-1.92,3.21,3.21,0,0,1,2.26-4l12.39-3.41a3.21,3.21,0,0,1,4,2.26l2.56,9.31,3.11-.86a2.24,2.24,0,0,1,1.18,0,2,2,0,0,1,1,.64A2.3,2.3,0,0,1,309.35,176Z"/><path class="cls-10" d="M140.34,356a1.86,1.86,0,0,1-2.28,0L125.62,345.9s0,.07,0,.11v13.41a2.68,2.68,0,0,0,.05.5v7c0,1.18.8,2.15,1.61,2.15a1.32,1.32,0,0,0,.8-.27c.42-.42,5.26-5,6.92-6.66h14.74a2.68,2.68,0,0,0,2.68-2.68V346.19Z"/><path class="cls-10" d="M140.14,352.13c.46-.46,6.94-5.8,10.42-8.66a2.65,2.65,0,0,0-.82-.14H128.29a2.69,2.69,0,0,0-.55.06c3.45,2.84,10,8.26,10.52,8.75A1.3,1.3,0,0,0,140.14,352.13Z"/><g id="Pictures_icon" data-name="Pictures icon"><path class="cls-10" d="M348.21,121.3l-3.85.82a3.79,3.79,0,0,0-4.18-2l-9.29,2a3.79,3.79,0,0,0-3,3.55l-3.85.82a4.75,4.75,0,0,0-3.65,5.64l.88,4.12,2.3,10.75a4.75,4.75,0,0,0,5.64,3.65l24.16-5.16a4.75,4.75,0,0,0,3.65-5.64L353.85,125A4.75,4.75,0,0,0,348.21,121.3Zm-7.91,22.1a8.52,8.52,0,1,1,6.58-10.15A8.55,8.55,0,0,1,340.3,143.4Zm8.57-14.46a1.9,1.9,0,1,1,1.46-2.26A1.9,1.9,0,0,1,348.87,128.93Z"/><circle class="cls-10" cx="338.51" cy="135.03" r="5.7" transform="translate(-20.74 73.7) rotate(-12.06)"/></g><path id="Location_icon" data-name="Location icon" class="cls-10" d="M216.51,443.11a10.06,10.06,0,0,0-10.39,10.14c0,2.67,1.75,5.63,4.05,10.14l4.6,9c1.29,1.13,2.3,1.13,3.45,0l4.6-9c2.3-4.51,4.05-7.52,4.05-10.14A10.06,10.06,0,0,0,216.51,443.11Zm0,15.8a6.19,6.19,0,1,1,6.31-6.19A6.25,6.25,0,0,1,216.53,458.91Z"/><path class="cls-10" d="M287.24,421.17a9.61,9.61,0,0,0-3.46-10.11,2.73,2.73,0,1,0-5.1-2c-.27,0-.54,0-.81,0a9.68,9.68,0,0,0-9,6.2c-1.73,3-2.34,6.25-4.86,8.35-1.94,1.61-2.9,3.23-1,4.2,1.55.78,16.78,6.45,19.36,7.42s3.52,0,3.23-2.9c-.32-3.23.65-7.1,1.61-11A1.26,1.26,0,0,0,287.24,421.17Z"/><path class="cls-10" d="M272.3,434.72a4.36,4.36,0,0,0,8,2.46c-3.43-1.33-5-2-7.93-2.93A4.38,4.38,0,0,0,272.3,434.72Z"/><g id="Link_icon" data-name="Link icon"><path class="cls-10" d="M162.6,417.14c-.86.59-1.29.88-.69,1.74l1.2,1.71c.6.85,1,.56,1.89,0l2.15-1.47a2.37,2.37,0,0,1,3.67.69l4.15,5.93a2.31,2.31,0,0,1-.64,3.63l-1.72,1.18c-1.43,1-3,.32-4-1.09a2.07,2.07,0,0,0-2.92-.53,1.81,1.81,0,0,0-.5,2.93l1.17,1.67a5.29,5.29,0,0,0,7.3,1.33l4.31-2.94a5.14,5.14,0,0,0,1.31-7.21l-6-8.55a5.29,5.29,0,0,0-7.3-1.33Z"/><path class="cls-10" d="M159.19,406.83l-4.31,2.94a5.14,5.14,0,0,0-1.31,7.21l6,8.54a5.29,5.29,0,0,0,7.3,1.33l3.45-2.35c.86-.59,1.29-.88.69-1.74l-1.2-1.71c-.6-.85-1-.56-1.89,0l-2.15,1.47a2.37,2.37,0,0,1-3.67-.69l-4.15-5.93a2.31,2.31,0,0,1,.64-3.63l1.72-1.18c1.43-1,3-.32,4,1.09a2.07,2.07,0,0,0,2.92.53,1.81,1.81,0,0,0,.5-2.93l-1.17-1.67A5.29,5.29,0,0,0,159.19,406.83Z"/></g><g id="Location_icon-2" data-name="Location icon"><path class="cls-10" d="M134.51,263.11a10.06,10.06,0,0,0-10.39,10.14c0,2.67,1.75,5.63,4.05,10.14l4.6,9c1.29,1.13,2.3,1.13,3.45,0l4.6-9c2.3-4.51,4.05-7.52,4.05-10.14A10.06,10.06,0,0,0,134.51,263.11Zm0,15.8a6.19,6.19,0,1,1,6.31-6.19A6.25,6.25,0,0,1,134.53,278.91Z"/></g><path class="cls-10" d="M352.61,429.79c-.33,2.43-.33,2.43-1.72,3.48l-4.15,3.15c-2.77,2.1-2.77,2.1-7.63,1.43s-5.2,1.76-3.1,4.53l3.15,4.15-6.91,5.24c-1.38,1-1.26.14-1.59,2.57-.24,1.72-.47,2,2,2.32s1.39.31,2.77-.74l6.91-5.24,3.15,4.15c2.1,2.77,4.53,3.1,5.2-1.76s.67-4.86,3.43-7l4.15-3.15c1.38-1,1.38-1,3.81-.71s3.81-.71,1.72-3.48l-7.34-9.68C354.32,426.31,352.94,427.36,352.61,429.79Z"/><path class="cls-10" d="M361,176.08c2.45,0,2.45,0,3.69,1.19l3.71,3.65c2.48,2.43,2.48,2.43,2.52,7.34s2.5,4.89,4.93,2.41l3.65-3.71,6.19,6.08c1.24,1.22.32,1.22,2.77,1.2,1.74,0,2,.17,2-2.28s.1-1.42-1.14-2.64l-6.19-6.08,3.65-3.71c2.43-2.48,2.41-4.93-2.5-4.89s-4.91,0-7.38-2.39l-3.71-3.65c-1.24-1.22-1.24-1.22-1.26-3.67s-1.26-3.67-3.69-1.19l-8.52,8.66C357.28,174.89,358.52,176.11,361,176.08Z"/><path class="cls-10" d="M480.47,245.05a3.23,3.23,0,0,1-.94,2.33,3.37,3.37,0,0,1-2.36,1,3.25,3.25,0,0,1-2.36-1,3.41,3.41,0,0,1-1-2.33,5.53,5.53,0,0,0-5.57-5.57h-4.42v6.68a2,2,0,0,1-.34,1.15,2.75,2.75,0,0,1-.91.84c-.07,0-.13,0-.2.07l-.27.1a1.93,1.93,0,0,1-1.21-.07,2,2,0,0,1-.64-.34l-13.29-10a1.6,1.6,0,0,1-.64-.78,2.14,2.14,0,0,1-.27-1,2.06,2.06,0,0,1,.27-1,2,2,0,0,1,.64-.78l13.29-10a2.2,2.2,0,0,1,1.15-.44,1.83,1.83,0,0,1,1.18.24,1.93,1.93,0,0,1,.91.81,2.06,2.06,0,0,1,.34,1.15v6.68h4.42a12.21,12.21,0,0,1,12.21,12.21Z"/><path class="cls-10" d="M494.87,293.07h-4.29l.48-5a2.18,2.18,0,1,0-4.34-.42l-.52,5.38h-6.52l.48-5a2.18,2.18,0,1,0-4.34-.42l-.52,5.38h-4.73a2.18,2.18,0,0,0-2.18,2.18v0a2.18,2.18,0,0,0,2.18,2.18h4.31l-.6,6.23h-4.66a2.17,2.17,0,1,0,0,4.33h4.24l-.49,5.11a2.18,2.18,0,0,0,4.34.42l.53-5.52h6.52l-.49,5.11a2.18,2.18,0,0,0,4.34.42l.53-5.52H494a2.17,2.17,0,1,0,0-4.33h-4.4l.6-6.23h4.71a2.18,2.18,0,0,0,2.18-2.18v0A2.18,2.18,0,0,0,494.87,293.07Zm-9.69,10.61h-6.52l.6-6.23h6.52Z"/><path class="cls-10" d="M480.24,366.17a9.61,9.61,0,0,0-3.46-10.11,2.73,2.73,0,1,0-5.1-2c-.27,0-.54,0-.81,0a9.68,9.68,0,0,0-9,6.2c-1.73,3-2.34,6.25-4.86,8.35-1.94,1.61-2.9,3.23-1,4.2,1.55.78,16.78,6.45,19.36,7.42s3.52,0,3.23-2.9c-.32-3.23.65-7.1,1.61-11A1.26,1.26,0,0,0,480.24,366.17Z"/><path class="cls-10" d="M465.3,379.72a4.36,4.36,0,0,0,8,2.46c-3.43-1.33-5-2-7.93-2.93A4.38,4.38,0,0,0,465.3,379.72Z"/><g id="Pictures_icon-2" data-name="Pictures icon"><path class="cls-10" d="M436.92,410.55H433a3.79,3.79,0,0,0-3.67-2.85h-9.5a3.79,3.79,0,0,0-3.67,2.85h-3.94a4.75,4.75,0,0,0-4.75,4.75V430.5a4.75,4.75,0,0,0,4.75,4.75h24.71a4.75,4.75,0,0,0,4.75-4.75V415.3A4.75,4.75,0,0,0,436.92,410.55Zm-12.35,20a8.52,8.52,0,1,1,8.55-8.55A8.55,8.55,0,0,1,424.56,430.5ZM436,418.15a1.9,1.9,0,1,1,1.9-1.9A1.9,1.9,0,0,1,436,418.15Z"/><circle class="cls-10" cx="424.56" cy="421.95" r="5.7"/></g><path class="cls-10" d="M407.11,466.77a3.23,3.23,0,0,1,.41,2.48,3.37,3.37,0,0,1-1.49,2.1,3.25,3.25,0,0,1-2.54.37,3.41,3.41,0,0,1-2-1.47,5.53,5.53,0,0,0-7.65-1.84L390,470.7l3.49,5.7a2,2,0,0,1,.31,1.15,2.75,2.75,0,0,1-.34,1.19c0,.06-.1.1-.14.16l-.18.23a1.93,1.93,0,0,1-1.07.58,2,2,0,0,1-.72,0l-16.55-1.58a1.6,1.6,0,0,1-1-.33,2.14,2.14,0,0,1-.74-.69,2.06,2.06,0,0,1-.3-1,2,2,0,0,1,.14-1l6.12-15.45a2.2,2.2,0,0,1,.75-1,1.83,1.83,0,0,1,1.13-.42,1.93,1.93,0,0,1,1.2.21,2.06,2.06,0,0,1,.89.8l3.49,5.7,3.77-2.31a12.21,12.21,0,0,1,16.79,4Z"/><path class="cls-10" d="M283.58,486.14a3.21,3.21,0,0,1,.79,4.5,3.27,3.27,0,0,1-2.06,1.3,3.23,3.23,0,0,1-2.41-.54L269.35,484a3.22,3.22,0,0,1-.78-4.45l5.54-7.9-2.64-1.85a2.15,2.15,0,0,1-.72-.91,2,2,0,0,1-.16-1.18,2.24,2.24,0,0,1,.49-1.05,2.35,2.35,0,0,1,1-.68l10.23-3.34a2.19,2.19,0,0,1,2.78,2l.32,10.49a7.61,7.61,0,0,1,0,.8,2.34,2.34,0,0,1-.35.78,2.18,2.18,0,0,1-3,.53l-2.64-1.85-3.69,5.26Zm19.89,8.94a2.12,2.12,0,0,1-1,.68l-10.21,3.31a2.45,2.45,0,0,1-1,.07,1.9,1.9,0,0,1-.93-.37,1.75,1.75,0,0,1-.61-.71,2.21,2.21,0,0,1-.29-.94l-.36-10.73a2.12,2.12,0,0,1,.31-1.14,2.3,2.3,0,0,1,.82-.82,2,2,0,0,1,1.16-.25,2.12,2.12,0,0,1,1.08.39l2.64,1.85,3.71-5.29-7.9-5.54a3.23,3.23,0,0,1-1.33-2.08,3.15,3.15,0,0,1,.52-2.39,3.21,3.21,0,0,1,4.5-.79l10.52,7.38a3.21,3.21,0,0,1,.79,4.5l-5.54,7.9,2.64,1.85a2.24,2.24,0,0,1,.76.9A2,2,0,0,1,304,494,2.3,2.3,0,0,1,303.47,495.08Z"/><path class="cls-10" d="M433.34,190a1.86,1.86,0,0,1-2.28,0L418.62,179.9s0,.07,0,.11v13.41a2.68,2.68,0,0,0,.05.5v7c0,1.18.8,2.15,1.61,2.15a1.32,1.32,0,0,0,.8-.27c.42-.42,5.26-5,6.92-6.66h14.74a2.68,2.68,0,0,0,2.68-2.68V180.19Z"/><path class="cls-10" d="M433.14,186.13c.46-.46,6.94-5.8,10.42-8.66a2.65,2.65,0,0,0-.82-.14H421.29a2.69,2.69,0,0,0-.55.06c3.45,2.84,10,8.26,10.52,8.75A1.3,1.3,0,0,0,433.14,186.13Z"/><g id="Link_icon-2" data-name="Link icon"><path class="cls-10" d="M179.06,183.75c-.73-.74-1.1-1.11-1.83-.37l-1.47,1.48c-.73.74-.37,1.11.37,1.86l1.83,1.86a2.37,2.37,0,0,1,0,3.73l-5.09,5.15a2.31,2.31,0,0,1-3.69,0L167.7,196c-1.22-1.23-.85-2.85.37-4.08a2.07,2.07,0,0,0,0-3,1.81,1.81,0,0,0-3,0l-1.43,1.45a5.29,5.29,0,0,0,0,7.42l3.67,3.71a5.14,5.14,0,0,0,7.33,0l7.33-7.42a5.29,5.29,0,0,0,0-7.42Z"/><path class="cls-10" d="M188.6,178.56l-3.67-3.71a5.14,5.14,0,0,0-7.33,0l-7.33,7.42a5.29,5.29,0,0,0,0,7.42l2.93,3c.73.74,1.1,1.11,1.83.37l1.47-1.48c.73-.74.37-1.11-.37-1.86l-1.83-1.86a2.37,2.37,0,0,1,0-3.73l5.09-5.15a2.31,2.31,0,0,1,3.69,0l1.47,1.48c1.21,1.23.85,2.85-.37,4.08a2.07,2.07,0,0,0,0,3,1.81,1.81,0,0,0,3,0L188.6,186A5.29,5.29,0,0,0,188.6,178.56Z"/></g></g></g></svg>