<svg xmlns="http://www.w3.org/2000/svg" viewBox="0 0 35.34 33.42"><defs><style>.cls-1{fill:#ef6c6c;}.cls-2{fill:#53504d;}</style></defs><title>heart</title><g id="Layer_2" data-name="Layer 2"><g id="logo-traced"><path class="cls-1" d="M33.34,10.49C33,20.72,21,31.42,17.67,31.42S2,20.69,2,10.49C2,6.12,5.52,2,9.85,2c4.83,0,7.43,4.9,7.82,5.44.39-.53,3-5.44,7.85-5.44C29.82,2,33.34,6.12,33.34,10.49Z"/><path class="cls-2" d="M17.67,33.42C13.09,33.32,0,21.58,0,10.49,0,4.8,4.51,0,9.85,0c2.95,0,5.57,1.35,7.82,4,2.27-2.67,4.9-4,7.85-4,5.23,0,9.82,4.9,9.82,10.49v.06C35,21.21,22.59,33.42,17.67,33.42ZM9.85,4C6.79,4,4,7.09,4,10.49c0,9.15,11.27,18.73,13.72,18.93,2.27-.21,13.31-9.81,13.62-19C31.32,7.08,28.56,4,25.52,4c-3.29,0-5.33,3.2-6,4.26l-.24.36-1.61,2.2-1.61-2.2-.25-.38C15.14,7.19,13.12,4,9.85,4Z"/></g></g></svg>