<?xml version="1.0" encoding="utf-8"?>
<!-- Generator: Adobe Illustrator 21.0.0, SVG Export Plug-In . SVG Version: 6.00 Build 0)  -->
<svg version="1.1" id="Layer_1" xmlns="http://www.w3.org/2000/svg" xmlns:xlink="http://www.w3.org/1999/xlink" x="0px" y="0px"
	 viewBox="0 0 620 620" style="enable-background:new 0 0 620 620;" xml:space="preserve">
<style type="text/css">
	.st0{fill:#FFFFFF;}
	.st1{fill:#3A3634;}
	.st2{fill:#EAE7E4;}
	.st3{fill:none;}
	.st4{fill:#14171A;}
	.st5{font-family:'Avenir-Black';}
	.st6{font-size:33.9289px;}
	.st7{font-size:33.9852px;}
	.st8{font-size:33.9221px;}
	.st9{font-size:34.1469px;}
	.st10{font-size:34.0653px;}
	.st11{font-size:33.9169px;}
	.st12{font-size:34.0245px;}
	.st13{font-size:34.1265px;}
	.st14{font-size:34.1078px;}
	.st15{font-size:26.769px;}
	.st16{font-size:26.8445px;}
	.st17{font-size:26.8068px;}
	.st18{font-size:26.7542px;}
	.st19{font-size:26.7461px;}
	.st20{font-size:26.87px;}
	.st21{font-size:26.8229px;}
	.st22{font-size:26.8821px;}
	.st23{font-size:26.9358px;}
	.st24{font-size:26.866px;}
	.st25{font-size:26.8498px;}
	.st26{font-size:26.8297px;}
	.st27{font-size:26.8337px;}
	.st28{font-size:26.9411px;}
	.st29{font-size:26.9826px;}
	.st30{font-size:26.8713px;}
	.st31{font-size:26.988px;}
	.st32{fill:#726B6B;}
	.st33{fill:#EF6C6C;stroke:#4F4B4B;stroke-width:4;stroke-miterlimit:10;}
	.st34{fill:none;stroke:#DDD9D7;stroke-width:2;stroke-linecap:round;stroke-miterlimit:10;}
	.st35{fill:none;stroke:#DDD9D7;stroke-width:2;stroke-linecap:round;stroke-miterlimit:10;stroke-dasharray:6.03,6.03;}
	.st36{fill:none;stroke:#DDD9D7;stroke-width:2;stroke-linecap:round;stroke-miterlimit:10;stroke-dasharray:5.89,5.89;}
	.st37{fill:none;stroke:#DDD9D7;stroke-width:2;stroke-linecap:round;stroke-miterlimit:10;stroke-dasharray:5.87,5.87;}
	.st38{fill:none;stroke:#DDD9D7;stroke-width:2;stroke-linecap:round;stroke-miterlimit:10;stroke-dasharray:5.74,5.74;}
	.st39{fill:#59CCD8;}
	.st40{fill:#DDD9D7;}
</style>
<title>logo</title>
<g id="Layer_2">
	<g id="circle">
		<path class="st0" d="M310,617C140.4,617,3,479.5,3,310c0-81.4,32.3-159.5,89.9-217.1C213.3-26.5,407.7-25.7,527.1,94.7
			c118.7,119.7,118.7,312.7,0,432.4C469.6,584.8,391.5,617.2,310,617z"/>
		<path class="st1" d="M310,6c167.9,0.1,304,136.3,303.9,304.3c-0.1,122.1-73.1,232.3-185.6,279.8C273.4,654.9,95.3,581.9,30.4,427
			C-34.1,272.8,37.9,95.4,191.7,29.9C229.1,14,269.4,5.9,310,6 M310,0C138.8,0,0,138.8,0,310s138.8,310,310,310s310-138.8,310-310
			S481.2,0,310,0L310,0z"/>
		<path class="st2" d="M310,526c-119.3,0-216-96.7-216-216S190.7,94,310,94s216,96.7,216,216c0,57.3-22.8,112.2-63.3,152.7
			C422.3,503.4,367.3,526.2,310,526z"/>
		<path class="st1" d="M310,97c117.3,0.2,212.2,95.3,212,212.6s-95.3,212.2-212.6,212S97.3,426.3,97.4,309
			c0.1-85.2,51.2-162.1,129.7-195.3C253.3,102.6,281.5,96.9,310,97 M310,91C189,91,91,189,91,310s98,219,219,219s219-98,219-219
			S431,91,310,91L310,91z"/>
		<circle class="st1" cx="350.7" cy="308.3" r="100"/>
		<rect x="548.1" y="297.2" class="st3" width="31.3" height="27.2"/>
		<path class="st4" d="M579.4,304.6c-0.3,10.2-12.3,20.9-15.7,20.9s-15.7-10.7-15.7-20.9c0-4.4,3.5-8.5,7.8-8.5
			c4.8,0,7.4,4.9,7.8,5.4c0.4-0.5,3-5.4,7.8-5.4C575.9,296.1,579.4,300.2,579.4,304.6z"/>
		<text transform="matrix(0.853 -0.5219 0.5219 0.853 172.0903 110.8202)" class="st1 st5 st6">@</text>
		<text transform="matrix(0.9117 -0.4108 0.4108 0.9117 202.6194 93.0688)" class="st1 st5 st7">T</text>
		<text transform="matrix(0.9536 -0.3011 0.3011 0.9536 225.1698 83.1106)" class="st1 st5 st8">A</text>
		<text transform="matrix(0.9872 -0.1595 0.1595 0.9872 257.0303 73.4797)" class="st1 st5 st9">N</text>
		<text transform="matrix(0.9996 -2.998651e-02 2.998651e-02 0.9996 292.4997 68.33)" class="st1 st5 st10">Y</text>
		<text transform="matrix(0.9939 0.1104 -0.1104 0.9939 322.63 67.8302)" class="st1 st5 st11">O</text>
		<text transform="matrix(0.9707 0.2402 -0.2402 0.9707 358.7399 72.6099)" class="st1 st5 st12">F</text>
		<text transform="matrix(0.9435 0.3312 -0.3312 0.9435 386.2094 80.0704)" class="st1 st5 st8">I</text>
		<text transform="matrix(0.908 0.4191 -0.4191 0.908 403.5099 86.3288)" class="st1 st5 st13">S</text>
		<text transform="matrix(0.8486 0.5291 -0.5291 0.8486 428.5197 98.2407)" class="st1 st5 st14">H</text>
		<text transform="matrix(0.5822 0.8131 -0.8131 0.5822 92.1602 457.3597)" class="st1 st5 st15">T</text>
		<text transform="matrix(0.6606 0.7507 -0.7507 0.6606 106.0609 476.1204)" class="st1 st5 st16">E</text>
		<text transform="matrix(0.7317 0.6816 -0.6816 0.7317 122.7198 494.8499)" class="st1 st5 st17">N</text>
		<text transform="matrix(0.8336 0.5524 -0.5524 0.8336 157.3002 524.1705)" class="st1 st5 st18">Y</text>
		<text transform="matrix(0.8821 0.4711 -0.4711 0.8821 178.6798 537.86)" class="st1 st5 st17">E</text>
		<text transform="matrix(0.9243 0.3818 -0.3818 0.9243 200.8603 549.2996)" class="st1 st5 st19">A</text>
		<text transform="matrix(0.96 0.29 -0.28 0.96 226.9398 559.52)" class="st1 st5 st20">R</text>
		<text transform="matrix(0.9817 0.2004 -0.1903 0.9817 251.3506 566.3601)" class="st1 st5 st21">S</text>
		<text transform="matrix(0.9996 2.998651e-02 -2.998651e-02 0.9996 289.8598 572.4598)" class="st1 st5 st22">W</text>
		<text transform="matrix(0.9976 -6.982913e-02 6.982913e-02 0.9976 324.7103 572.4904)" class="st1 st5 st23">I</text>
		<text transform="matrix(0.9901 -0.14 0.14 0.9901 340.2301 571.2303)" class="st1 st5 st24">T</text>
		<text transform="matrix(0.9707 -0.2402 0.2402 0.9707 363.4203 567.5505)" class="st1 st5 st25">H</text>
		<text transform="matrix(0.9207 -0.3903 0.3903 0.9207 405.2999 555.05)" class="st1 st5 st25">T</text>
		<text transform="matrix(0.8713 -0.4907 0.4907 0.8713 427.0496 545.6998)" class="st1 st5 st26">W</text>
		<text transform="matrix(0.8211 -0.5708 0.5708 0.8211 457.0294 527.9094)" class="st1 st5 st27">I</text>
		<text transform="matrix(0.7779 -0.6283 0.6283 0.7779 469.7307 518.9006)" class="st1 st5 st28">T</text>
		<text transform="matrix(0.717 -0.6971 0.6971 0.717 487.6095 503.9601)" class="st1 st5 st29">T</text>
		<text transform="matrix(0.65 -0.76 0.76 0.65 504.1301 487.4703)" class="st1 st5 st30">E</text>
		<text transform="matrix(0.5675 -0.8164 0.8164 0.5775 520.0405 468.3203)" class="st1 st5 st31">R</text>
		<path class="st32" d="M310,22c159.1,0.2,287.9,129.3,287.8,288.4c-0.1,115.6-69.3,219.9-175.7,265
			c-147.3,60.1-315.5-10.7-375.5-158c-59-144.7,8.1-310.1,151.3-372.7C233.4,29.6,271.5,21.9,310,22 M310,20
			C149.8,20,20,149.8,20,310s129.8,290,290,290s290-129.8,290-290S470.2,20,310,20L310,20z"/>
		<path class="st33" d="M71.4,304.6c-0.3,10.2-12.3,20.9-15.7,20.9s-15.7-10.7-15.7-20.9c0-4.4,3.5-8.5,7.8-8.5
			c4.8,0,7.4,4.9,7.8,5.4c0.4-0.5,3-5.4,7.8-5.4C67.9,296.1,71.4,300.2,71.4,304.6z"/>
		<path class="st33" d="M578.4,304.6c-0.3,10.2-12.3,20.9-15.7,20.9s-15.7-10.7-15.7-20.9c0-4.4,3.5-8.5,7.8-8.5
			c4.8,0,7.4,4.9,7.8,5.4c0.4-0.5,3-5.4,7.8-5.4C574.9,296.1,578.4,300.2,578.4,304.6z"/>
		<path class="st34" d="M562.3,334.3c-0.1,1-0.2,2-0.3,3"/>
		<path class="st35" d="M561.2,343.3c-4.1,31-13.8,60.9-28.8,88.3"/>
		<path class="st34" d="M530.9,434.2c-0.5,0.9-1,1.7-1.5,2.6"/>
		<path class="st34" d="M464,108.7l2.4,1.8"/>
		<path class="st36" d="M470.9,114.2c51.4,42.2,84.2,103.1,91.1,169.3"/>
		<path class="st34" d="M562.3,286.4c0.1,1,0.2,2,0.3,3"/>
		<path class="st34" d="M57.4,289.5c0.1-1,0.2-2,0.3-3"/>
		<path class="st37" d="M58.3,280.7c7.1-61.2,36.2-117.7,82-158.9c3.5-3.1,7-6.2,10.7-9.1"/>
		<path class="st34" d="M153.2,110.9l2.4-1.9"/>
		<path class="st34" d="M92.5,440.1c-0.5-0.9-1-1.7-1.5-2.6"/>
		<path class="st38" d="M88.1,432.5c-16.3-29.4-26.5-61.8-30.1-95.2"/>
		<path class="st34" d="M57.8,334.5c-0.1-1-0.2-2-0.3-3"/>
		<polygon class="st39" points="193.1,395.5 193.1,255.7 179.4,255.7 179.4,238.8 209.2,220.5 235.4,220.5 235.4,395.5 		"/>
		<path class="st1" d="M230.4,225.5v165h-32.3V250.7h-13.7v-9.1l26.2-16.1L230.4,225.5 M240.4,215.5h-32.7L174.4,236v24.7h13.7
			v139.8h52.3V215.5L240.4,215.5z"/>
		<path class="st39" d="M350.7,237.5c39.1,0,70.8,31.7,70.8,70.8S389.7,379,350.7,379s-70.8-31.7-70.8-70.8l0,0
			C280,269.2,311.6,237.6,350.7,237.5 M350.7,217.5c-50.1,0-90.8,40.6-90.8,90.8s40.6,90.8,90.8,90.8s90.8-40.6,90.8-90.8
			S400.8,217.5,350.7,217.5z"/>
		<path class="st0" d="M339.1,346.1c32.1,0,49.6-26.6,49.6-49.6c0-0.8,0-1.5,0-2.2c3.4-2.5,6.4-5.5,8.7-9c-3.2,1.4-6.5,2.3-10,2.8
			c3.6-2.2,6.4-5.6,7.7-9.6c-3.4,2-7.2,3.4-11.1,4.2c-6.6-7-17.6-7.4-24.7-0.8c-4.5,4.3-6.5,10.6-5.1,16.7c-14-0.7-27.1-7.3-36-18.2
			c-4.6,8-2.3,18.2,5.4,23.3c-2.8-0.1-5.5-0.8-7.9-2.2c0,0.1,0,0.1,0,0.2c0,8.3,5.9,15.5,14,17.1c-2.6,0.7-5.3,0.8-7.9,0.3
			c2.3,7.1,8.8,12,16.3,12.1c-6.2,4.8-13.8,7.5-21.7,7.5c-1.4,0-2.8-0.1-4.2-0.2C320.4,343.4,329.7,346.1,339.1,346.1"/>
	</g>
	<g id="icons">
		<path class="st40" d="M219,145.9l5.3,12.3c0.4,0.9,0,1.9-0.9,2.2s-1.9,0-2.2-0.9l-5.4-12.6c-0.6-1.7,0.1-3.7,1.8-4.5l7.9-3.4
			c0.9-0.4,1.9,0,2.2,0.9s0,1.9-0.9,2.2l-7.5,3.3l-0.2,0.1C219,145.7,219,145.8,219,145.9z"/>
		<path class="st40" d="M255.8,154.2c0.7,1.6-0.1,3.4-1.7,4.1c-0.1,0-0.2,0.1-0.3,0.1l-12.3,5.3c-0.9,0.4-1.9,0-2.2-0.9
			s0-1.9,0.9-2.2l11.9-5.2l0.3-0.1c0-0.1-0.1-0.2-0.1-0.3l-2.6-6c-0.4-0.9,0-1.9,0.9-2.2s1.9,0,2.2,0.9L255.8,154.2z"/>
		<path class="st40" d="M245.6,126.2c-0.2,1.3-0.5,2.6-1,3.8c-0.9,2.1-2.1,4.1-3.4,5.9c0.8,0,2.5-0.3,4.8-3.6
			c0.4,1.9,0.1,3.9-0.9,5.6c-1.7,3-4.3,3-5.3,6.8c1.1-0.1,2-0.5,4.6-3.1c0.1,1.1,0.2,2.2-1.3,4.7s-3.9,3-6.6,6.2
			c-3.4,4.1-4.6,14.3-4.8,16.6c-0.2,3.2-1.1,3.5-1.8,1.1s-0.6-4.9,0-11.2c0.7-7.3,2.5-14.5,5.3-21.3c2.1-4.6,5.1-8.7,8.9-12.1
			C245.3,124.6,245.6,125,245.6,126.2z"/>
		<path class="st40" d="M289.8,185.7c1.7-0.5,3.5,0.5,4,2.2c0,0,0,0,0,0.1c0.2,0.8,0.1,1.7-0.3,2.4c-0.4,0.8-1.2,1.3-2,1.5
			l-12.4,3.4c-1.7,0.5-3.4-0.5-3.9-2.2l-2.6-9.3l-3.1,0.9c-0.4,0.1-0.8,0.1-1.2,0c-0.4-0.1-0.7-0.3-1-0.6c-0.2-0.3-0.4-0.6-0.5-1
			c-0.1-0.4,0-0.8,0.1-1.2l3.9-10c0.5-1.1,1.8-1.6,2.9-1.1c0.1,0.1,0.3,0.1,0.4,0.2l8.3,6.4c0.2,0.2,0.4,0.3,0.6,0.5
			c0.2,0.2,0.3,0.5,0.4,0.8c0.3,1.1-0.4,2.3-1.5,2.6l-3.1,0.9l1.7,6.2L289.8,185.7z M309.4,176c0.1,0.4,0.1,0.8-0.1,1.2l-4,10
			c-0.1,0.3-0.3,0.6-0.5,0.8c-0.2,0.2-0.5,0.4-0.9,0.5c-0.3,0.1-0.6,0.1-0.9,0c-0.3-0.1-0.6-0.2-0.9-0.4l-8.5-6.6
			c-0.3-0.3-0.6-0.6-0.7-1c-0.1-0.4-0.2-0.8-0.1-1.2c0.1-0.4,0.3-0.8,0.5-1.1c0.3-0.3,0.6-0.5,1-0.6l3.1-0.9l-1.7-6.2l-9.3,2.6
			c-0.8,0.2-1.7,0.1-2.5-0.3c-0.7-0.4-1.3-1.1-1.5-1.9c-0.5-1.7,0.5-3.5,2.2-4c0,0,0,0,0.1,0l12.4-3.4c1.7-0.5,3.5,0.5,4,2.2
			c0,0,0,0,0,0.1l2.6,9.3l3.1-0.9c0.4-0.1,0.8-0.1,1.2,0c0.4,0.1,0.7,0.3,1,0.6C309.1,175.2,309.3,175.6,309.4,176L309.4,176z"/>
		<path class="st40" d="M140.3,356c-0.7,0.5-1.6,0.5-2.3,0l-12.4-10.1c0,0,0,0.1,0,0.1v13.4c0,0.2,0,0.3,0.1,0.5v7
			c0,1.2,0.8,2.1,1.6,2.1c0.3,0,0.6-0.1,0.8-0.3c0.4-0.4,5.3-5,6.9-6.7h14.7c1.5,0,2.7-1.2,2.7-2.7v-13.3L140.3,356z"/>
		<path class="st40" d="M140.1,352.1c0.5-0.5,6.9-5.8,10.4-8.7c-0.3-0.1-0.5-0.1-0.8-0.1h-21.4c-0.2,0-0.4,0-0.6,0.1
			c3.4,2.8,10,8.3,10.5,8.8C138.8,352.7,139.6,352.7,140.1,352.1C140.1,352.2,140.1,352.1,140.1,352.1z"/>
		<g id="Pictures_icon">
			<path class="st40" d="M348.2,121.3l-3.9,0.8c-0.8-1.5-2.5-2.4-4.2-2l-9.3,2c-1.7,0.4-2.9,1.8-3,3.6l-3.9,0.8
				c-2.6,0.5-4.2,3.1-3.7,5.6c0,0,0,0,0,0l0.9,4.1l2.3,10.8c0.5,2.6,3.1,4.2,5.6,3.7c0,0,0,0,0,0l24.2-5.2c2.6-0.5,4.2-3.1,3.7-5.6
				c0,0,0,0,0,0l-3.2-14.9C353.3,122.4,350.8,120.8,348.2,121.3C348.2,121.3,348.2,121.3,348.2,121.3z M340.3,143.4
				c-4.6,1-9.1-2-10.1-6.6c-1-4.6,2-9.1,6.6-10.1c4.6-1,9.1,2,10.1,6.5C347.8,137.9,344.9,142.4,340.3,143.4L340.3,143.4z
				 M348.9,129c-1,0.2-2-0.4-2.3-1.5c-0.2-1,0.4-2,1.5-2.3c1-0.2,2,0.4,2.3,1.5C350.5,127.7,349.9,128.7,348.9,129L348.9,129z"/>
			
				<ellipse transform="matrix(0.9779 -0.2089 0.2089 0.9779 -20.7413 73.7073)" class="st40" cx="338.5" cy="135" rx="5.7" ry="5.7"/>
		</g>
		<path id="Location_icon" class="st40" d="M216.5,443.1c-5.6-0.2-10.2,4.2-10.4,9.7c0,0.1,0,0.3,0,0.4c0,2.7,1.8,5.6,4.1,10.1
			l4.6,9c1.3,1.1,2.3,1.1,3.4,0l4.6-9c2.3-4.5,4.1-7.5,4.1-10.1c0-5.6-4.4-10.1-10-10.1C216.8,443.1,216.6,443.1,216.5,443.1z
			 M216.5,458.9c-3.4-0.1-6.1-2.9-6.1-6.3c0.1-3.4,2.9-6.1,6.3-6.1c3.4,0.1,6.1,2.8,6.1,6.2C222.8,456.2,220,458.9,216.5,458.9
			L216.5,458.9z"/>
		<path class="st40" d="M287.2,421.2c1-3.8-0.4-7.8-3.5-10.1c0.6-1.4-0.1-3-1.5-3.6c-1.4-0.6-3,0.1-3.6,1.6c-0.3,0-0.5,0-0.8,0
			c-4,0-7.6,2.5-9,6.2c-1.7,3-2.3,6.2-4.9,8.4c-1.9,1.6-2.9,3.2-1,4.2c1.5,0.8,16.8,6.5,19.4,7.4s3.5,0,3.2-2.9
			c-0.3-3.2,0.6-7.1,1.6-11C287.2,421.3,287.2,421.2,287.2,421.2z"/>
		<path class="st40" d="M272.3,434.7c0,2.4,1.9,4.4,4.3,4.4c1.5,0,2.9-0.7,3.7-2c-3.4-1.3-5-2-7.9-2.9
			C272.3,434.4,272.3,434.6,272.3,434.7z"/>
		<g id="Link_icon">
			<path class="st40" d="M162.6,417.1c-0.9,0.6-1.3,0.9-0.7,1.7l1.2,1.7c0.6,0.9,1,0.6,1.9,0l2.1-1.5c1-0.9,2.5-0.8,3.3,0.2
				c0.1,0.1,0.2,0.3,0.3,0.5l4.1,5.9c0.9,0.9,0.8,2.4-0.1,3.3c-0.2,0.1-0.3,0.3-0.5,0.4l-1.7,1.2c-1.4,1-3,0.3-4-1.1
				c-0.6-0.9-1.9-1.2-2.9-0.6c0,0,0,0,0,0c-0.9,0.4-1.3,1.5-0.9,2.4c0.1,0.2,0.2,0.4,0.4,0.5l1.2,1.7c1.7,2.4,4.9,3,7.3,1.3l4.3-2.9
				c2.3-1.6,3-4.8,1.4-7.1c0,0,0,0,0-0.1l-6-8.5c-1.7-2.4-4.9-3-7.3-1.3L162.6,417.1z"/>
			<path class="st40" d="M159.2,406.8l-4.3,2.9c-2.3,1.6-3,4.8-1.4,7.1c0,0,0,0,0,0.1l6,8.5c1.7,2.4,4.9,3,7.3,1.3l3.4-2.4
				c0.9-0.6,1.3-0.9,0.7-1.7l-1.2-1.7c-0.6-0.9-1-0.6-1.9,0l-2.1,1.5c-1,0.9-2.5,0.8-3.3-0.2c-0.1-0.1-0.2-0.3-0.3-0.5l-4.1-5.9
				c-0.9-0.9-0.8-2.4,0.1-3.3c0.2-0.1,0.3-0.3,0.5-0.4l1.7-1.2c1.4-1,3-0.3,4,1.1c0.6,0.9,1.9,1.2,2.9,0.6c0,0,0,0,0,0
				c0.9-0.4,1.3-1.5,0.9-2.4c-0.1-0.2-0.2-0.4-0.4-0.5l-1.2-1.7C164.9,405.7,161.6,405.1,159.2,406.8z"/>
		</g>
		<g id="Location_icon-2">
			<path class="st40" d="M134.5,263.1c-5.6-0.2-10.2,4.2-10.4,9.7c0,0.1,0,0.3,0,0.4c0,2.7,1.8,5.6,4.1,10.1l4.6,9
				c1.3,1.1,2.3,1.1,3.4,0l4.6-9c2.3-4.5,4.1-7.5,4.1-10.1c0-5.6-4.4-10.1-10-10.1C134.8,263.1,134.6,263.1,134.5,263.1z
				 M134.5,278.9c-3.4-0.1-6.1-2.9-6.1-6.3c0.1-3.4,2.9-6.1,6.3-6.1c3.4,0.1,6.1,2.8,6.1,6.2C140.8,276.2,138,278.9,134.5,278.9
				L134.5,278.9z"/>
		</g>
		<path class="st40" d="M352.6,429.8c-0.3,2.4-0.3,2.4-1.7,3.5l-4.1,3.1c-2.8,2.1-2.8,2.1-7.6,1.4s-5.2,1.8-3.1,4.5l3.1,4.1
			l-6.9,5.2c-1.4,1-1.3,0.1-1.6,2.6c-0.2,1.7-0.5,2,2,2.3s1.4,0.3,2.8-0.7l6.9-5.2l3.1,4.1c2.1,2.8,4.5,3.1,5.2-1.8s0.7-4.9,3.4-7
			l4.1-3.1c1.4-1,1.4-1,3.8-0.7s3.8-0.7,1.7-3.5l-7.3-9.7C354.3,426.3,352.9,427.3,352.6,429.8z"/>
		<path class="st40" d="M361,176.1c2.5,0,2.5,0,3.7,1.2l3.7,3.6c2.5,2.4,2.5,2.4,2.5,7.3s2.5,4.9,4.9,2.4l3.6-3.7l6.2,6.1
			c1.2,1.2,0.3,1.2,2.8,1.2c1.7,0,2,0.2,2-2.3s0.1-1.4-1.1-2.6l-6.2-6.1l3.6-3.7c2.4-2.5,2.4-4.9-2.5-4.9s-4.9,0-7.4-2.4l-3.7-3.6
			c-1.2-1.2-1.2-1.2-1.3-3.7s-1.3-3.7-3.7-1.2l-8.5,8.7C357.3,174.9,358.5,176.1,361,176.1z"/>
		<path class="st40" d="M480.5,245.1c0,0.9-0.3,1.7-0.9,2.3c-0.6,0.6-1.5,1-2.4,1c-0.9,0-1.7-0.4-2.4-1c-0.6-0.6-1-1.5-1-2.3
			c0-3.1-2.4-5.5-5.5-5.6c0,0-0.1,0-0.1,0h-4.4v6.7c0,0.4-0.1,0.8-0.3,1.1c-0.2,0.3-0.5,0.6-0.9,0.8c-0.1,0-0.1,0-0.2,0.1l-0.3,0.1
			c-0.4,0.1-0.8,0.1-1.2-0.1c-0.2-0.1-0.4-0.2-0.6-0.3l-13.3-10c-0.3-0.2-0.5-0.5-0.6-0.8c-0.2-0.3-0.3-0.6-0.3-1
			c0-0.4,0.1-0.7,0.3-1c0.1-0.3,0.4-0.6,0.6-0.8l13.3-10c0.3-0.3,0.7-0.4,1.1-0.4c0.4-0.1,0.8,0,1.2,0.2c0.4,0.2,0.7,0.4,0.9,0.8
			c0.2,0.3,0.3,0.7,0.3,1.1v6.7h4.4C475,232.8,480.5,238.3,480.5,245.1L480.5,245.1z"/>
		<path class="st40" d="M494.9,293.1h-4.3l0.5-5c0.1-1.2-0.8-2.3-2-2.4s-2.3,0.8-2.4,2l0,0l-0.5,5.4h-6.5l0.5-5
			c0.1-1.2-0.8-2.3-2-2.4s-2.3,0.8-2.4,2l0,0l-0.5,5.4h-4.7c-1.2,0-2.2,1-2.2,2.2l0,0c0,1.2,1,2.2,2.2,2.2h4.3l-0.6,6.2h-4.7
			c-1.2-0.1-2.2,0.8-2.3,2s0.8,2.2,2,2.3c0.1,0,0.2,0,0.3,0h4.2l-0.5,5.1c-0.1,1.2,0.8,2.3,2,2.4s2.3-0.8,2.4-2l0.5-5.5h6.5
			l-0.5,5.1c-0.1,1.2,0.8,2.3,2,2.4s2.3-0.8,2.4-2l0.5-5.5h4.9c1.2-0.1,2.1-1.1,2-2.3c-0.1-1.1-0.9-1.9-2-2h-4.4l0.6-6.2h4.7
			c1.2,0,2.2-1,2.2-2.2l0,0C497.1,294,496.1,293,494.9,293.1z M485.2,303.7h-6.5l0.6-6.2h6.5L485.2,303.7z"/>
		<path class="st40" d="M480.2,366.2c1-3.8-0.4-7.8-3.5-10.1c0.6-1.4-0.1-3-1.5-3.6c-1.4-0.6-3,0.1-3.6,1.6c-0.3,0-0.5,0-0.8,0
			c-4,0-7.6,2.5-9,6.2c-1.7,3-2.3,6.2-4.9,8.4c-1.9,1.6-2.9,3.2-1,4.2c1.5,0.8,16.8,6.5,19.4,7.4s3.5,0,3.2-2.9
			c-0.3-3.2,0.6-7.1,1.6-11C480.2,366.3,480.2,366.2,480.2,366.2z"/>
		<path class="st40" d="M465.3,379.7c0,2.4,1.9,4.4,4.3,4.4c1.5,0,2.9-0.7,3.7-2c-3.4-1.3-5-2-7.9-2.9
			C465.3,379.4,465.3,379.6,465.3,379.7z"/>
		<g id="Pictures_icon-2">
			<path class="st40" d="M436.9,410.6H433c-0.4-1.7-1.9-2.8-3.7-2.9h-9.5c-1.7,0-3.2,1.2-3.7,2.9h-3.9c-2.6,0-4.8,2.1-4.8,4.8l0,0
				v15.2c0,2.6,2.1,4.8,4.8,4.8h24.7c2.6,0,4.8-2.1,4.8-4.8v-15.2C441.7,412.7,439.6,410.6,436.9,410.6
				C436.9,410.6,436.9,410.5,436.9,410.6z M424.6,430.6c-4.7,0-8.5-3.8-8.5-8.5c0-4.7,3.8-8.5,8.5-8.5c4.7,0,8.5,3.8,8.5,8.5
				C433.1,426.7,429.3,430.5,424.6,430.6L424.6,430.6z M436,418.2c-1,0-1.9-0.9-1.9-1.9c0-1,0.9-1.9,1.9-1.9c1,0,1.9,0.9,1.9,1.9
				l0,0C437.9,417.3,437,418.2,436,418.2z"/>
			<circle class="st40" cx="424.6" cy="422" r="5.7"/>
		</g>
		<path class="st40" d="M407.1,466.8c0.5,0.7,0.6,1.6,0.4,2.5c-0.2,0.9-0.8,1.6-1.5,2.1c-0.8,0.5-1.7,0.6-2.5,0.4
			c-0.8-0.2-1.5-0.7-2-1.5c-1.6-2.6-5-3.5-7.6-1.9c0,0,0,0-0.1,0l-3.8,2.3l3.5,5.7c0.2,0.3,0.3,0.7,0.3,1.2c0,0.4-0.1,0.8-0.3,1.2
			c0,0.1-0.1,0.1-0.1,0.2l-0.2,0.2c-0.3,0.3-0.7,0.5-1.1,0.6c-0.2,0-0.5,0-0.7,0l-16.5-1.6c-0.4,0-0.7-0.1-1-0.3
			c-0.3-0.2-0.6-0.4-0.7-0.7c-0.2-0.3-0.3-0.6-0.3-1c0-0.3,0-0.7,0.1-1l6.1-15.5c0.1-0.4,0.4-0.7,0.8-1c0.4-0.3,0.8-0.4,1.2-0.3
			c0.4-0.1,0.8,0,1.2,0.2c0.4,0.2,0.7,0.5,0.9,0.8l3.5,5.7l3.8-2.3C396.1,459.2,403.6,461,407.1,466.8L407.1,466.8z"/>
		<path class="st40" d="M283.6,486.1c1.5,1,1.8,3,0.8,4.5c0,0,0,0,0,0c-0.5,0.7-1.2,1.1-2.1,1.3c-0.8,0.1-1.7,0-2.4-0.5l-10.5-7.4
			c-1.4-1-1.8-3-0.8-4.5l5.5-7.9l-2.6-1.9c-0.3-0.2-0.6-0.5-0.7-0.9c-0.2-0.4-0.2-0.8-0.2-1.2c0.1-0.4,0.2-0.7,0.5-1
			c0.3-0.3,0.6-0.5,1-0.7l10.2-3.3c1.2-0.3,2.4,0.4,2.7,1.5c0,0.2,0.1,0.3,0.1,0.5l0.3,10.5c0,0.3,0,0.5,0,0.8
			c-0.1,0.3-0.2,0.5-0.4,0.8c-0.7,1-2,1.2-3,0.5l-2.7-1.9l-3.7,5.3L283.6,486.1z M303.5,495.1c-0.3,0.3-0.6,0.6-1,0.7l-10.2,3.3
			c-0.3,0.1-0.7,0.1-1,0.1c-0.3,0-0.7-0.2-0.9-0.4c-0.3-0.2-0.5-0.4-0.6-0.7c-0.2-0.3-0.3-0.6-0.3-0.9l-0.4-10.7
			c0-0.4,0.1-0.8,0.3-1.1c0.2-0.3,0.5-0.6,0.8-0.8c0.4-0.2,0.8-0.3,1.2-0.2c0.4,0,0.8,0.2,1.1,0.4l2.6,1.8l3.7-5.3l-7.9-5.5
			c-0.7-0.5-1.2-1.2-1.3-2.1c-0.2-0.8,0-1.7,0.5-2.4c1-1.5,3-1.8,4.5-0.8c0,0,0,0,0,0l10.5,7.4c1.5,1,1.8,3,0.8,4.5c0,0,0,0,0,0
			l-5.5,7.9l2.6,1.8c0.3,0.2,0.6,0.5,0.8,0.9c0.2,0.4,0.2,0.8,0.1,1.2C303.8,494.4,303.7,494.8,303.5,495.1L303.5,495.1z"/>
		<path class="st40" d="M433.3,190c-0.7,0.5-1.6,0.5-2.3,0l-12.4-10.1c0,0,0,0.1,0,0.1v13.4c0,0.2,0,0.3,0,0.5v7
			c0,1.2,0.8,2.1,1.6,2.1c0.3,0,0.6-0.1,0.8-0.3c0.4-0.4,5.3-5,6.9-6.7h14.7c1.5,0,2.7-1.2,2.7-2.7v-13.3L433.3,190z"/>
		<path class="st40" d="M433.1,186.1c0.5-0.5,6.9-5.8,10.4-8.7c-0.3-0.1-0.5-0.1-0.8-0.1h-21.5c-0.2,0-0.4,0-0.5,0.1
			c3.5,2.8,10,8.3,10.5,8.8C431.8,186.7,432.6,186.7,433.1,186.1C433.1,186.2,433.1,186.1,433.1,186.1z"/>
		<g id="Link_icon-2">
			<path class="st40" d="M179.1,183.8c-0.7-0.7-1.1-1.1-1.8-0.4l-1.5,1.5c-0.7,0.7-0.4,1.1,0.4,1.9l1.8,1.9c1,0.8,1.2,2.3,0.4,3.3
				c-0.1,0.1-0.3,0.3-0.4,0.4l-5.1,5.1c-0.8,1-2.2,1.2-3.2,0.5c-0.2-0.1-0.3-0.3-0.5-0.5l-1.5-1.5c-1.2-1.2-0.9-2.9,0.4-4.1
				c0.8-0.8,0.9-2.1,0.1-2.9c0,0,0,0-0.1-0.1c-0.6-0.8-1.7-1-2.5-0.5c-0.2,0.1-0.4,0.3-0.5,0.5l-1.4,1.4c-2,2.1-2,5.4,0,7.4l3.7,3.7
				c2,2,5.2,2.1,7.3,0.1c0,0,0,0,0.1-0.1l7.3-7.4c2-2.1,2-5.4,0-7.4L179.1,183.8z"/>
			<path class="st40" d="M188.6,178.6l-3.7-3.7c-2-2-5.2-2.1-7.3-0.1c0,0,0,0-0.1,0.1l-7.3,7.4c-2,2.1-2,5.4,0,7.4l2.9,3
				c0.7,0.7,1.1,1.1,1.8,0.4l1.5-1.5c0.7-0.7,0.4-1.1-0.4-1.9l-1.8-1.9c-1-0.8-1.2-2.3-0.4-3.3c0.1-0.1,0.3-0.3,0.4-0.4l5.1-5.1
				c0.8-1,2.2-1.2,3.2-0.5c0.2,0.1,0.3,0.3,0.5,0.5l1.5,1.5c1.2,1.2,0.9,2.9-0.4,4.1c-0.8,0.8-0.9,2.1-0.1,2.9c0,0,0,0,0.1,0.1
				c0.6,0.8,1.7,1,2.5,0.5c0.2-0.1,0.4-0.3,0.5-0.5l1.4-1.4C190.7,184,190.7,180.7,188.6,178.6C188.6,178.6,188.6,178.6,188.6,178.6
				z"/>
		</g>
	</g>
</g>
</svg>
