<svg xmlns="http://www.w3.org/2000/svg" viewBox="0 0 132 132"><defs><style>.cls-1,.cls-3,.cls-4{fill:none;}.cls-2{fill:#f4f2f2;}.cls-3,.cls-4{stroke:#a09692;stroke-miterlimit:10;stroke-width:4px;}.cls-4{stroke-linecap:square;}</style></defs><title>matrix</title><g id="Layer_2" data-name="Layer 2"><g id="infographics"><rect class="cls-1" width="132" height="132"/><rect class="cls-2" x="18" y="38" width="14" height="14"/><rect class="cls-2" x="18" y="52" width="14" height="14"/><rect class="cls-2" x="18" y="66" width="14" height="14"/><rect class="cls-2" x="18" y="80" width="14" height="14"/><rect class="cls-1" x="32" y="38" width="14" height="14"/><rect class="cls-2" x="32" y="52" width="14" height="14"/><rect class="cls-2" x="32" y="66" width="14" height="14"/><rect class="cls-2" x="32" y="80" width="14" height="14"/><rect class="cls-1" x="45" y="38" width="14" height="14"/><rect class="cls-1" x="45" y="52" width="14" height="14"/><rect class="cls-2" x="45" y="66" width="14" height="14"/><rect class="cls-1" x="45" y="80" width="14" height="14"/><rect class="cls-1" x="59" y="38" width="14" height="14"/><rect class="cls-1" x="59" y="52" width="14" height="14"/><rect class="cls-1" x="59" y="66" width="14" height="14"/><rect class="cls-1" x="59" y="80" width="14" height="14"/><rect class="cls-2" x="72" y="38" width="14" height="14"/><rect class="cls-1" x="72" y="52" width="14" height="14"/><rect class="cls-1" x="72" y="66" width="14" height="14"/><rect class="cls-1" x="72" y="80" width="14" height="14"/><rect class="cls-2" x="86" y="38" width="14" height="14"/><rect class="cls-2" x="86" y="52" width="14" height="14"/><rect class="cls-1" x="86" y="66" width="14" height="14"/><rect class="cls-2" x="86" y="80" width="14" height="14"/><rect class="cls-2" x="100" y="38" width="14" height="14"/><rect class="cls-2" x="100" y="52" width="14" height="14"/><rect class="cls-2" x="100" y="66" width="14" height="14"/><rect class="cls-2" x="100" y="80" width="14" height="14"/><line class="cls-3" x1="31.71" y1="38" x2="31.71" y2="94"/><line class="cls-3" x1="45.43" y1="38" x2="45.43" y2="94"/><line class="cls-3" x1="59.14" y1="38" x2="59.14" y2="94"/><line class="cls-3" x1="72.86" y1="38" x2="72.86" y2="94"/><line class="cls-3" x1="86.57" y1="38" x2="86.57" y2="94"/><line class="cls-4" x1="18" y1="38" x2="18" y2="94"/><line class="cls-3" x1="100.29" y1="38" x2="100.29" y2="94"/><line class="cls-4" x1="114" y1="38" x2="114" y2="94"/><line class="cls-4" x1="114" y1="94" x2="18" y2="94"/><line class="cls-4" x1="114" y1="38" x2="18" y2="38"/><line class="cls-3" x1="114" y1="52" x2="18" y2="52"/><line class="cls-3" x1="114" y1="66" x2="18" y2="66"/><line class="cls-3" x1="114" y1="80" x2="18" y2="80"/></g></g></svg>