<svg xmlns="http://www.w3.org/2000/svg" viewBox="0 0 132 132"><defs><style>.cls-1,.cls-2{fill:none;}.cls-2,.cls-3{stroke:#a09692;stroke-miterlimit:10;stroke-width:4px;}.cls-3{fill:#ddd9d7;}</style></defs><title>pie</title><g id="Layer_2" data-name="Layer 2"><g id="circle"><rect class="cls-1" width="132" height="132"/></g><g id="infographics"><path class="cls-2" d="M66,80a13.93,13.93,0,0,1-5.79-1.26L49.45,102.41a40.08,40.08,0,0,0,28.68,1.71L70.24,79.34A14,14,0,0,1,66,80Z"/><path class="cls-2" d="M79.74,68.69a14,14,0,0,1-9.49,10.65l7.89,24.78A40.06,40.06,0,0,0,105.2,74L79.72,68.81S79.73,68.73,79.74,68.69Z"/><path class="cls-3" d="M52,66A14,14,0,0,1,66,52V26a40,40,0,0,0-16.55,76.41L60.21,78.74A14,14,0,0,1,52,66Z"/><path class="cls-2" d="M106,66A40,40,0,0,0,66,26V52A14,14,0,0,1,79.72,68.81L105.2,74A40.18,40.18,0,0,0,106,66Z"/><path class="cls-1" d="M73.47,105.29l-.54.1Z"/><path class="cls-1" d="M75.81,104.78l-.41.1Z"/><path class="cls-1" d="M70.92,105.69l-.34,0Z"/><path class="cls-1" d="M105.2,74l0-.11,0,.11Z"/><path class="cls-1" d="M106,66q0,1-.05,2Q106,67,106,66Z"/><path class="cls-1" d="M105.88,63c0,.13,0,.26,0,.39C105.9,63.26,105.89,63.13,105.88,63Z"/></g></g></svg>